<svg xmlns="http://www.w3.org/2000/svg" width="360" height="120" viewBox="0 0 360 120" fill="none"><defs><linearGradient id="a" x1="0%" y1="0%" x2="100%" y2="100%"><stop offset="0%" stop-color="#0a1a2f"/><stop offset="100%" stop-color="#11c7c5"/></linearGradient></defs><path d="m50 15 23 13.66V56L50 69.64 27 56V28.66Z" stroke="url(#a)" stroke-width="3" stroke-linejoin="round" transform="translate(10 6)"/><path d="m60 31 12 7v14l-12 7-12-7V38Z" stroke="#0a1a2f" stroke-width="2" opacity=".3"/><path d="M42 30v25h23V38l-8-8Z" fill="url(#a)" opacity=".95" transform="translate(10 6)"/><path d="M67 36v8h8Z" fill="#f4c542"/><path stroke="#fff" stroke-width="1.5" opacity=".9" d="M56 48h14m-14 5h14m-14 5h9"/><path d="m45 38 3 2v4l-3 2-3-2v-4Z" fill="#11c7c5" opacity=".7"/><path d="m75 63 2.5 1.5v3L75 69l-2.5-1.5v-3Z" fill="#f4c542" opacity=".8"/><path d="m42 63 2 1.5v3L42 69l-2-1.5v-3Z" fill="#11c7c5" opacity=".6"/><text x="90" y="65" fill="#0a1a2f" font-family="Inter, Roboto, Arial, Helvetica, sans-serif" font-weight="700" font-size="48" letter-spacing="-.6">
    ClauseHive
  </text></svg>